<?xml version="1.0" encoding="UTF-8" standalone="no"?>
<!-- Uploaded to: SVG Repo, www.svgrepo.com, Generator: SVG Repo Mixer Tools -->

<svg
   width="800px"
   height="800px"
   viewBox="0 0 24 24"
   fill="none"
   version="1.1"
   id="svg2"
   sodipodi:docname="book-2-svgrepo-com.svg"
   inkscape:export-filename="android-chrome-512x512.png"
   inkscape:export-xdpi="96"
   inkscape:export-ydpi="96"
   inkscape:version="1.4.2 (f4327f4, 2025-05-13)"
   xmlns:inkscape="http://www.inkscape.org/namespaces/inkscape"
   xmlns:sodipodi="http://sodipodi.sourceforge.net/DTD/sodipodi-0.dtd"
   xmlns="http://www.w3.org/2000/svg"
   xmlns:svg="http://www.w3.org/2000/svg">
  <defs
     id="defs2" />
  <sodipodi:namedview
     id="namedview2"
     pagecolor="#505050"
     bordercolor="#eeeeee"
     borderopacity="1"
     inkscape:showpageshadow="0"
     inkscape:pageopacity="0"
     inkscape:pagecheckerboard="0"
     inkscape:deskcolor="#505050"
     inkscape:zoom="0.91875"
     inkscape:cx="441.36054"
     inkscape:cy="96.326531"
     inkscape:window-width="1920"
     inkscape:window-height="974"
     inkscape:window-x="-11"
     inkscape:window-y="-11"
     inkscape:window-maximized="1"
     inkscape:current-layer="svg2" />
  <path
     fill-rule="evenodd"
     clip-rule="evenodd"
     d="M 0.6980608,0.54715195 C 0.9911808,0.31717912 1.4028715,0.16741939 2.1801728,0.08562755 2.9803093,0.00132266 4.0408021,0 5.561344,0 h 4.2372693 c 1.5205547,0 2.5810347,0.00132266 3.3812057,0.08575987 0.777301,0.08191984 1.188864,0.23167957 1.482069,0.4615244 0.29312,0.2299728 0.484309,0.55240413 0.588885,1.16164023 C 15.358293,2.3360807 15.36,3.1672683 15.36,4.3590312 V 10.378347 H 3.211776 C 2.3453008,10.378117 1.7540272,10.377963 1.2470187,10.484587 0.79364272,10.579734 0.37312,10.735466 0,10.939626 V 4.3589117 C 0,3.1671488 0.0016896,2.3359186 0.10922672,1.7088052 0.21376,1.099569 0.40490672,0.77696704 0.6980608,0.54715195 Z M 3.4427221,2.9059312 c -0.438784,0 -0.794496,0.2786128 -0.794496,0.6227184 0,0.3438931 0.35584,0.6227187 0.794496,0.6227187 H 11.91721 c 0.438827,0 0.794496,-0.2786128 0.794496,-0.6227187 0,-0.3438928 -0.35584,-0.6227184 -0.794496,-0.6227184 z m -0.794496,3.5286544 c 0,-0.3438928 0.35584,-0.6227187 0.794496,-0.6227187 h 5.2965035 c 0.4388272,0 0.794496,0.2786131 0.794496,0.6227187 0,0.3438928 -0.35584,0.6226752 -0.794496,0.6226752 H 3.4427307 c -0.438784,0 -0.794496,-0.2786128 -0.7945046,-0.6226752 z"
     fill="#1c274d"
     id="path1"
     style="stroke-width:0.858647" />
  <path
     d="m 3.3344427,11.623734 c -1.036288,0 -1.3985712,0.0054 -1.6762027,0.06357 -0.761984,0.16 -1.36942928,0.603945 -1.629952,1.181011 0.01610667,0.293546 0.04134832,0.552021 0.08106672,0.782762 0.10453328,0.609235 0.29568,0.93188 0.58884256,1.161683 0.29312,0.229974 0.70481072,0.379733 1.48211202,0.461482 0.8,0.08448 1.86048,0.08576 3.3810347,0.08576 h 4.2372693 c 1.5205557,0 2.5810347,-0.0013 3.3812057,-0.08576 0.7773,-0.08192 1.188864,-0.23168 1.482068,-0.461482 0.207787,-0.162986 0.3648,-0.372905 0.475392,-0.698281 H 3.4427307 c -0.438784,0 -0.794496,-0.278613 -0.794496,-0.622678 0,-0.343892 0.35584,-0.622675 0.794496,-0.622675 H 15.331554 c 0.01968,-0.357973 0.02573,-0.768298 0.02755,-1.24548 z"
     fill="#1c274d"
     id="path2"
     style="stroke-width:0.858647" />
</svg>
